<?xml version="1.0" standalone="no"?>
<!DOCTYPE svg PUBLIC "-//W3C//DTD SVG 20010904//EN"
 "http://www.w3.org/TR/2001/REC-SVG-20010904/DTD/svg10.dtd">
<svg version="1.0" xmlns="http://www.w3.org/2000/svg"
 width="1280.000000pt" height="1280.000000pt" viewBox="0 0 1280.000000 1280.000000"
 preserveAspectRatio="xMidYMid meet">
<metadata>
Created by potrace 1.14, written by Peter Selinger 2001-2017
</metadata>
<g transform="translate(0.000000,1280.000000) scale(0.100000,-0.100000)"
fill="#000000" stroke="none">
<path d="M5890 12785 c-328 -25 -615 -66 -895 -126 -1192 -256 -2206 -820
-3120 -1734 -914 -914 -1478 -1928 -1734 -3120 -189 -878 -189 -1932 0 -2810
256 -1190 822 -2209 1734 -3120 911 -912 1930 -1478 3120 -1734 878 -189 1932
-189 2810 0 1190 256 2209 822 3120 1734 912 911 1476 1927 1734 3120 189 873
189 1933 0 2810 -256 1190 -822 2209 -1734 3120 -911 912 -1930 1478 -3120
1734 -456 98 -900 142 -1430 140 -176 -1 -394 -7 -485 -14z m3646 -4562 c3
-10 10 -27 14 -38 5 -11 11 -38 14 -60 5 -42 15 -100 41 -230 18 -91 31 -161
44 -237 5 -29 17 -91 26 -138 9 -47 21 -107 26 -135 5 -27 13 -72 19 -100 5
-27 14 -75 19 -105 5 -30 14 -75 19 -100 14 -60 29 -140 42 -225 6 -38 20
-124 31 -190 11 -66 24 -145 29 -175 20 -131 30 -190 45 -270 18 -93 28 -159
44 -293 6 -49 13 -92 15 -96 2 -3 10 -51 16 -106 6 -55 16 -136 22 -180 5 -44
13 -114 18 -155 4 -41 15 -136 24 -210 36 -290 46 -399 65 -685 6 -77 15 -196
20 -265 6 -69 11 -226 11 -350 0 -216 -1 -229 -26 -305 -28 -86 -77 -187 -100
-206 -8 -6 -14 -16 -14 -21 0 -32 -239 -290 -359 -388 -24 -19 -48 -40 -55
-46 -16 -15 -117 -95 -156 -124 -49 -37 -143 -113 -160 -130 -8 -8 -27 -21
-41 -29 -15 -7 -38 -24 -52 -37 -14 -13 -28 -24 -31 -24 -5 0 -192 -125 -221
-147 -6 -5 -30 -19 -55 -32 -25 -14 -62 -37 -82 -52 -20 -14 -51 -32 -68 -39
-16 -7 -30 -16 -30 -21 0 -5 -7 -9 -15 -9 -7 0 -38 -13 -67 -30 -107 -60 -335
-166 -483 -225 -38 -16 -74 -32 -79 -37 -6 -4 -20 -8 -33 -8 -12 0 -32 -4 -45
-9 -13 -5 -43 -17 -68 -26 -25 -10 -54 -21 -65 -25 -11 -5 -31 -11 -45 -14
-27 -5 -62 -15 -150 -41 -54 -16 -86 -25 -172 -45 -481 -114 -1132 -150 -1598
-89 -41 6 -111 14 -155 20 -120 14 -192 26 -270 44 -38 9 -88 20 -110 25 -103
23 -176 43 -291 80 -17 6 -40 10 -52 10 -11 0 -24 5 -27 10 -3 6 -16 10 -28
10 -12 0 -31 7 -41 15 -11 8 -32 15 -48 15 -15 0 -28 5 -28 10 0 6 -11 10 -24
10 -14 0 -28 5 -31 10 -3 6 -12 10 -20 10 -7 0 -43 13 -78 30 -36 16 -68 30
-72 30 -4 0 -36 13 -72 30 -35 16 -68 30 -73 30 -10 0 -291 144 -370 189 -30
18 -63 35 -72 38 -10 3 -18 9 -18 14 0 5 -4 9 -10 9 -5 0 -35 18 -67 41 -32
22 -67 45 -78 50 -23 10 -58 32 -65 40 -3 3 -52 39 -110 79 -58 41 -118 87
-135 102 -16 15 -33 28 -38 28 -4 0 -15 8 -25 18 -10 10 -51 45 -92 77 -41 33
-94 79 -117 102 -22 24 -44 43 -47 43 -8 0 -266 260 -303 306 -18 21 -53 61
-78 88 -25 26 -45 51 -45 54 0 2 -17 24 -37 47 -21 23 -52 60 -68 81 -42 53
-265 372 -265 379 0 2 -21 37 -47 77 -25 40 -72 123 -103 183 -31 61 -71 137
-88 169 -17 33 -29 62 -26 65 7 8 613 13 641 6 19 -4 93 -102 93 -122 0 -11
124 -193 132 -193 4 0 8 -9 8 -20 0 -11 4 -20 8 -20 4 0 16 -14 26 -32 11 -17
26 -40 35 -51 33 -40 47 -56 65 -82 11 -14 28 -36 39 -48 11 -12 40 -48 65
-79 25 -32 49 -58 53 -58 5 0 9 -5 9 -10 0 -12 340 -360 352 -360 4 0 25 -16
45 -36 21 -20 54 -48 73 -62 19 -15 44 -35 55 -45 36 -34 212 -157 224 -157 6
0 11 -4 11 -8 0 -10 183 -132 199 -132 6 0 11 -4 11 -9 0 -5 8 -11 18 -14 22
-7 93 -48 109 -64 7 -6 29 -17 48 -23 19 -6 35 -16 35 -21 0 -5 4 -9 10 -9 5
0 44 -16 87 -36 43 -20 87 -39 98 -44 11 -4 56 -25 100 -45 91 -43 95 -44 190
-79 39 -14 78 -26 87 -26 9 0 20 -4 23 -10 3 -5 19 -10 34 -10 16 0 34 -6 40
-14 6 -8 26 -16 44 -19 54 -9 91 -18 112 -27 28 -12 180 -50 245 -61 275 -47
357 -58 540 -70 238 -15 632 -4 810 22 74 12 151 23 170 25 97 13 344 65 385
83 11 4 47 15 80 24 33 8 76 21 95 28 19 6 44 15 55 19 11 4 38 13 60 19 58
18 159 59 242 97 39 19 79 34 87 34 9 0 16 5 16 10 0 6 7 10 15 10 18 0 129
52 133 63 2 4 10 7 17 7 13 0 95 44 172 93 24 15 47 27 53 27 5 0 10 5 10 10
0 6 6 10 13 10 6 0 58 32 115 70 57 39 105 70 108 70 2 0 12 7 21 14 10 8 74
57 143 108 179 133 340 300 340 352 0 9 3 16 8 16 11 0 55 100 64 150 13 64
36 291 32 309 -3 15 -11 126 -34 526 -19 322 -47 739 -69 1030 -12 146 -28
223 -51 235 -20 11 -1483 14 -1535 3 -16 -3 -36 -11 -44 -17 -21 -16 -121
-153 -121 -165 0 -6 -4 -11 -10 -11 -5 0 -10 -7 -10 -15 0 -8 -4 -15 -10 -15
-5 0 -10 -5 -10 -11 0 -11 -50 -82 -62 -87 -5 -2 -8 -8 -8 -13 0 -5 -16 -31
-35 -58 -19 -26 -35 -51 -35 -55 0 -4 -11 -19 -25 -34 -14 -15 -25 -32 -25
-39 0 -6 -4 -13 -8 -15 -5 -1 -39 -46 -75 -98 -103 -149 -53 -135 -474 -138
-200 -1 -363 1 -363 5 0 10 83 130 105 152 9 9 34 41 56 71 21 30 43 60 47 65
4 6 21 28 37 50 17 22 38 49 48 59 9 11 17 25 17 32 0 7 4 14 10 16 5 2 24 24
42 49 32 46 206 277 234 312 8 9 14 21 14 26 0 5 6 11 14 14 12 5 106 131 106
143 0 3 16 22 35 42 19 20 35 42 35 49 0 6 3 13 8 15 4 2 25 28 47 58 22 30
42 57 45 60 3 3 19 23 36 45 16 22 37 49 47 59 9 11 17 23 17 26 0 4 12 20 26
36 14 16 52 66 84 110 32 45 65 90 74 100 27 34 201 266 218 293 9 14 21 31
25 36 5 6 22 28 38 50 16 22 48 63 71 90 22 28 69 90 103 139 34 48 75 102 91
120 17 17 30 34 30 38 0 4 6 13 13 20 20 22 67 86 67 93 0 3 13 20 30 38 16
18 30 35 30 38 0 3 8 16 19 28 10 12 29 37 42 56 13 19 27 35 32 35 4 0 7 5 7
11 0 6 31 50 68 98 38 47 90 116 116 154 26 37 51 67 55 67 4 0 16 16 27 35
10 19 22 35 26 35 5 0 8 6 8 13 0 6 10 24 23 38 57 67 94 105 112 116 15 9
121 12 383 12 337 1 363 0 368 -16z"/>
<path d="M8920 7592 c0 -4 -10 -18 -23 -32 -13 -14 -26 -32 -30 -40 -4 -8 -21
-33 -38 -55 -45 -60 -79 -113 -79 -124 0 -5 -4 -11 -9 -13 -4 -1 -41 -50 -82
-108 -40 -58 -84 -116 -96 -130 -13 -14 -23 -30 -23 -36 0 -5 -8 -19 -17 -30
-10 -11 -22 -27 -28 -36 -5 -8 -33 -46 -62 -84 -29 -38 -59 -83 -67 -100 -8
-16 -24 -38 -36 -49 -11 -10 -20 -24 -20 -32 0 -7 -4 -13 -9 -13 -5 0 -32 -36
-61 -80 -29 -44 -56 -80 -61 -80 -5 0 -9 -6 -9 -13 0 -6 -24 -45 -54 -84 -56
-74 -66 -98 -53 -120 6 -10 123 -13 526 -13 447 0 520 2 531 15 12 14 10 41
-16 180 -4 17 -10 62 -14 100 -5 39 -16 122 -25 185 -17 125 -32 236 -45 345
-14 120 -29 223 -40 282 -5 31 -10 74 -10 95 0 46 -15 78 -35 78 -8 0 -15 -3
-15 -8z"/>
</g>
</svg>
